# Blender v2.67 (sub 0) OBJ File: ''
# www.blender.org
o Sphere
v -1.306299 0.426997 0.031215
v -1.523071 0.161513 0.013977
v -1.218934 -0.452549 0.000000
v -0.886182 -0.613004 -0.000637
v -0.003153 -0.725832 0.000000
v -0.302876 0.653952 -0.155352
v -1.008338 0.452549 -0.462864
v -1.256599 0.161513 -0.577181
v -1.256599 -0.161513 -0.577181
v -1.008338 -0.452549 -0.462864
v -0.560989 -0.653952 -0.256870
v 0.154904 0.653952 -0.193721
v 0.355594 0.452549 -0.577181
v 0.444197 0.161513 -0.719733
v 0.444197 -0.161513 -0.719733
v 0.355594 -0.452549 -0.577181
v 0.195937 -0.653952 -0.320312
v 0.912918 1.338984 0.000000
v 0.813938 0.653952 -0.046582
v 1.123193 0.452549 -0.256870
v 1.231127 0.161513 -0.320312
v 1.231127 -0.161513 -0.320312
v 1.123193 -0.452549 -0.256870
v 0.802944 -0.653952 -0.142552
v 0.813938 0.653952 0.046582
v 1.123193 0.452549 0.256870
v 1.231126 0.161513 0.320312
v 1.231126 -0.161513 0.320312
v 1.123193 -0.452549 0.256870
v 0.802944 -0.653952 0.142552
v 0.154904 0.653952 0.193721
v 0.355594 0.452549 0.577182
v 0.444197 0.161513 0.719734
v 0.444197 -0.161513 0.719734
v 0.355594 -0.452549 0.577182
v 0.195937 -0.653952 0.320312
v -0.302876 0.653952 0.155352
v -1.008339 0.452549 0.462864
v -1.256599 0.161513 0.577181
v -1.256599 -0.161513 0.577181
v -1.008339 -0.452549 0.462864
v -0.560989 -0.653952 0.256870
v -0.897852 0.653952 -0.000000
v -1.529563 -0.156402 0.012083
v 0.448084 -0.886050 1.104491
v 0.392765 -0.870881 -1.091432
v -2.521197 0.484998 -0.016811
v -3.056277 0.248154 -0.016811
v -3.211346 -0.051837 -0.016811
v -2.915815 -0.210437 -0.016811
v -2.521197 -0.490313 -0.016811
v -2.287013 0.484998 -0.331280
v -2.458447 0.278891 -0.561487
v -2.521197 -0.002658 -0.645748
v -2.461097 -0.284206 -0.364782
v -2.289930 -0.422752 -0.282139
v -2.045436 0.492818 -0.016811
v -1.876942 0.358876 -0.249949
v -1.749845 0.206074 -0.420617
v -1.703325 -0.002658 -0.483086
v -1.749845 -0.211389 -0.420617
v -1.876942 -0.364191 -0.249949
v -1.703325 0.358876 -0.016811
v -1.560033 0.206074 -0.017585
v -1.562749 -0.004040 -0.011468
v -1.604380 -0.211389 -0.016811
v -1.703325 -0.364191 -0.016811
v -1.876942 0.358876 0.216327
v -1.749845 0.206074 0.386995
v -1.703325 -0.002658 0.449464
v -1.749845 -0.211389 0.386995
v -1.876942 -0.364191 0.216327
v -2.082400 -0.479690 -0.016811
v -2.287013 0.484998 0.297658
v -2.458447 0.278891 0.527865
v -2.521197 -0.002658 0.612126
v -2.456087 -0.296490 0.398783
v -2.288792 -0.453462 0.291493
v 1.482831 0.473990 -0.016811
v 1.337805 0.279812 -0.016811
v 1.284722 0.014559 -0.016811
v 1.337805 -0.250694 -0.016811
v 1.482831 -0.444873 -0.016811
v 1.581885 0.473990 -0.246527
v 1.509372 0.279812 -0.414690
v 1.482831 0.014559 -0.476242
v 1.509372 -0.250694 -0.414690
v 1.581885 -0.444873 -0.246527
v 1.680939 0.493427 -0.016811
v 1.937458 0.416749 -0.217906
v 2.000937 0.246763 -0.365118
v 2.024171 0.014559 -0.419001
v 2.000937 -0.217646 -0.365118
v 1.937458 -0.387631 -0.217906
v 2.252305 0.293445 -0.016811
v 2.452263 0.175574 -0.016811
v 2.525454 0.014559 -0.016811
v 2.452263 -0.146456 -0.016811
v 2.252305 -0.264328 -0.016811
v 1.937458 0.416749 0.184284
v 2.000937 0.246763 0.331496
v 2.024171 0.014559 0.385379
v 2.000937 -0.217646 0.331496
v 1.937458 -0.387631 0.184284
v 1.667735 -0.456932 -0.016811
v 1.581885 0.473990 0.212905
v 1.509372 0.279812 0.381068
v 1.482831 0.014559 0.442620
v 1.509372 -0.250694 0.381068
v 1.581885 -0.444873 0.212905
v 3.284662 1.094229 0.006969
v 3.284662 1.094229 -0.040591
v 1.674160 0.288676 -0.040591
v 1.674160 0.288676 0.006969
v 3.328923 -0.764136 0.006969
v 3.328923 -0.764136 -0.040591
v 1.674160 -0.224150 -0.040591
v 1.674160 -0.224150 0.006969
v 1.674160 -0.224150 0.006969
v 1.674160 -0.224150 0.006969
v 3.328923 -0.764136 0.006969
v 3.328923 -0.764136 0.006969
v 3.284662 1.094229 0.006969
v 3.284662 1.094229 0.006969
v 1.674160 0.288676 0.006969
v 1.674160 0.288676 0.006969
v 3.328923 -0.764136 -0.040591
v 3.328923 -0.764136 -0.040591
v 3.284662 1.094229 -0.040591
v 3.284662 1.094229 -0.040591
v 1.674160 -0.224150 -0.040591
v 1.674160 -0.224150 -0.040591
v 1.674160 0.288676 -0.040591
v 1.674160 0.288676 -0.040591
v 0.154904 0.653952 -0.193721
v 0.154904 0.653952 -0.193721
v -0.302876 0.653952 -0.155352
v -0.302876 0.653952 -0.155352
v 0.912918 1.338984 0.000000
v 0.912918 1.338984 0.000000
v 0.912918 1.338984 0.000000
v 0.912918 1.338984 0.000000
v 0.912918 1.338984 0.000000
v 0.813938 0.653952 -0.046582
v -0.302876 0.653952 0.155352
v -0.302876 0.653952 0.155352
v 0.154904 0.653952 0.193721
v -0.897852 0.653952 -0.000000
v -0.897852 0.653952 -0.000000
v -1.256599 0.161513 -0.577181
v -1.256599 0.161513 -0.577181
v -1.256599 -0.161513 -0.577181
v -1.256599 -0.161513 -0.577181
v 0.444197 0.161513 -0.719733
v 0.444197 0.161513 -0.719733
v 0.444197 -0.161513 -0.719733
v 0.444197 -0.161513 -0.719733
v 0.392765 -0.870881 -1.091432
v 0.392765 -0.870881 -1.091432
v 0.392765 -0.870881 -1.091432
v 0.444197 0.161513 0.719734
v 0.444197 0.161513 0.719734
v 0.444197 -0.161513 0.719734
v 0.444197 -0.161513 0.719734
v -1.256599 0.161513 0.577181
v -1.256599 0.161513 0.577181
v -1.256599 -0.161513 0.577181
v -1.256599 -0.161513 0.577181
v 0.448084 -0.886050 1.104491
v 0.448084 -0.886050 1.104491
v 0.448084 -0.886050 1.104491
v 0.813938 0.653952 -0.046582
v 0.813938 0.653952 0.046582
v 0.813938 0.653952 0.046582
v 0.154904 0.653952 0.193721
v 0.912918 1.338984 0.000000
vt 0.587580 0.032330
vt 0.591214 0.147410
vt 0.445203 0.237893
vt 0.152721 0.012295
vt 0.347733 0.016278
vt 0.221287 0.130952
vt 0.317632 0.123515
vt 0.117128 0.242735
vt 0.420634 0.177096
vt 0.276105 0.433056
vt 0.380075 0.141172
vt 0.142423 0.306189
vt 0.418577 0.357211
vt 0.345958 0.455300
vt 0.221826 0.401159
vt 0.166984 0.569813
vt 0.177381 0.358039
vt 0.009143 0.419926
vt 0.275416 0.565534
vt 0.101764 0.535897
vt 0.009574 0.326911
vt 0.021440 0.221212
vt 0.023072 0.137953
vt 0.148415 0.185878
vt 0.132292 0.004686
vt 0.217339 0.005178
vt 0.275733 0.015004
vt 0.062257 0.060145
vt 0.177622 0.142079
vt 0.059663 0.311910
vt 0.126449 0.231547
vt 0.213234 0.099582
vt 0.339200 0.181305
vt 0.293856 0.221831
vt 0.118242 0.296732
vt 0.229694 0.315321
vt 0.258825 0.265907
vt 0.207141 0.374498
vt 0.411832 0.481444
vt 0.509898 0.417332
vt 0.474294 0.459276
vt 0.417064 0.136906
vt 0.528551 0.353385
vt 0.496111 0.016080
vt 0.028480 0.143936
vt 0.631912 0.330170
vt 0.473291 0.383505
vt 0.548773 0.383505
vt 0.494988 0.393706
vt 0.444521 0.355464
vt 0.455360 0.355464
vt 0.447548 0.357312
vt 0.473291 0.393764
vt 0.513835 0.393764
vt 0.493089 0.411118
vt 0.180040 0.453078
vt 0.475712 0.348282
vt 0.477837 0.383447
vt 0.470822 0.347737
vt 0.435331 0.354537
vt 0.488580 0.411176
vt 0.528035 0.420506
vt 0.473291 0.420506
vt 0.314181 0.480019
vt 0.457687 0.571313
vt 0.448816 0.346121
vt 0.459466 0.348141
vt 0.444521 0.348141
vt 0.612795 0.495258
vt 0.556480 0.554324
vt 0.350675 0.570698
vt 0.498067 0.195531
vt 0.632532 0.405833
vt 0.482031 0.452875
vt 0.507478 0.440908
vt 0.513761 0.452875
vt 0.482031 0.457477
vt 0.484725 0.452887
vt 0.516122 0.457477
vt 0.505716 0.440896
vt 0.482031 0.425737
vt 0.516122 0.425737
vt 0.517969 0.439128
vt 0.516134 0.444124
vt 0.516134 0.425737
vt 0.511678 0.393735
vt 0.470433 0.393735
vt 0.511190 0.374348
vt 0.521754 0.378368
vt 0.519087 0.371032
vt 0.521754 0.351823
vt 0.474438 0.400453
vt 0.470433 0.393752
vt 0.519070 0.393752
vt 0.470433 0.374330
vt 0.504996 0.351823
vt 0.519070 0.374330
vt 0.206152 0.721919
vt 0.205495 0.785121
vt 0.043826 0.835629
vt 0.443345 0.427467
vt 0.441390 0.576013
vt 0.402455 0.370727
vt 0.221731 0.914416
vt 0.042572 0.914104
vt 0.236486 0.622188
vt 0.048534 0.618358
vt 0.261613 0.448846
vt 0.426860 0.307166
vt 0.158825 0.223423
vt 0.343460 0.206083
vt 0.424444 0.268473
vt 0.152727 0.293435
vt 0.420875 0.289070
vt 0.460787 0.290470
vt 0.435095 0.327214
vt 0.458498 0.307415
vt 0.436200 0.241208
vt 0.462264 0.273300
vt 0.500268 0.276937
vt 0.456875 0.320962
vt 0.476789 0.332436
vt 0.464316 0.255545
vt 0.494901 0.247795
vt 0.489843 0.314519
vt 0.500455 0.380300
vt 0.565646 0.189516
vt 0.499108 0.297763
vt 0.611142 0.534092
vt 0.629110 0.262308
vt 0.452242 0.357056
vt 0.517914 0.149382
vt 0.469744 0.207315
vt 0.422368 0.623367
vt 0.419882 0.731857
vt 0.414966 0.833625
vt 0.404764 0.917867
vt 0.494151 0.418125
vt 0.534373 0.539626
vt 0.392076 0.394783
vt 0.393871 0.216281
vt 0.495750 0.308786
vt 0.386412 0.351982
vt 0.402179 0.573067
vt 0.388063 0.437923
vt 0.362076 0.309023
vt 0.315273 0.346449
vt 0.365281 0.482423
vt 0.315954 0.446066
vt 0.325242 0.371924
vt 0.325681 0.419816
vt 0.327744 0.395768
vt 0.289063 0.387867
vt 0.289063 0.403907
vt 0.289062 0.375397
vt 0.289063 0.416499
vt 0.289063 0.395877
vt 0.250381 0.395768
vt 0.252883 0.371925
vt 0.252444 0.419816
vt 0.262172 0.446066
vt 0.190063 0.437924
vt 0.186049 0.394784
vt 0.262852 0.346449
vt 0.191712 0.351983
vt 0.388743 0.205381
vt 0.388743 0.206487
vt 0.346897 0.205381
vt 0.346897 0.207613
vt 0.320275 0.200520
vt 0.387347 0.207613
vt 0.866183 0.993381
vt 0.471138 0.706634
vt 0.883761 0.482558
vt 0.573221 0.207239
vt 0.572394 0.207239
vt 0.572394 0.174939
vt 0.480659 0.671314
vt 0.882944 0.483331
vt 0.468614 0.709605
vt 0.389869 0.217299
vt 0.388764 0.217299
vt 0.389869 0.205381
vt 0.304687 0.205216
vt 0.289063 0.555531
vt 0.216049 0.309023
vt 0.212844 0.482423
vt 0.039405 0.138865
vt 0.176441 0.185032
vt 0.175947 0.573067
vt 0.061331 0.522049
vt 0.046517 0.484543
vt 0.612237 0.286185
vt 0.039174 0.723995
vt 0.631833 0.339956
vt 0.346897 0.206487
vt 0.387347 0.206508
vt 0.481147 0.670009
vt 0.573221 0.174939
vt 0.867438 0.993666
vt 0.388764 0.205381
vt 0.041005 0.400548
vn -0.940977 0.338328 0.005951
vn -0.621632 0.782464 0.035737
vn -0.303720 0.773186 -0.556658
vn -0.367199 -0.930113 -0.001587
vn -0.576312 -0.817194 -0.004395
vn -0.137089 -0.931852 -0.335887
vn -0.334605 -0.738792 -0.584979
vn 0.030702 -0.900113 -0.434553
vn -0.720969 0.414808 -0.555071
vn 0.092837 0.683737 -0.723777
vn -0.719840 -0.414289 -0.556932
vn 0.105411 -0.630055 -0.769341
vn -0.090274 0.883084 -0.460402
vn 0.012421 0.887906 -0.459822
vn 0.280862 0.301614 -0.911100
vn 0.654408 0.629963 -0.418165
vn 0.280862 -0.301614 -0.911100
vn 0.669668 -0.615986 -0.414777
vn 0.371288 0.891964 -0.257881
vn 0.837245 0.189550 -0.512864
vn 0.296060 -0.918973 -0.260353
vn 0.837245 -0.189550 -0.512864
vn 0.837245 -0.189550 0.512864
vn 0.371288 0.891964 0.257881
vn 0.837245 0.189550 0.512864
vn 0.669668 -0.615986 0.414777
vn 0.654408 0.629963 0.418165
vn 0.092837 0.683737 0.723777
vn 0.280862 0.301614 0.911100
vn 0.296060 -0.918973 0.260353
vn 0.105411 -0.630055 0.769341
vn 0.280862 -0.301614 0.911100
vn 0.030702 -0.900113 0.434553
vn -0.332102 -0.739341 0.585711
vn -0.710837 0.416181 0.566973
vn -0.710135 -0.416150 0.567888
vn 0.012421 0.887906 0.459822
vn -0.297342 0.770989 0.563128
vn -0.937284 -0.348460 0.005280
vn -0.008332 -0.999939 0.000000
vn -0.489181 0.864467 -0.115574
vn -0.210089 0.555345 -0.804621
vn -0.078219 0.350475 -0.933287
vn 0.217750 0.034852 -0.975372
vn 0.989715 -0.142979 0.000000
vn 0.217750 0.034852 0.975372
vn -0.078219 0.350475 0.933287
vn -0.137150 -0.931852 0.335826
vn -0.210089 0.555345 0.804621
vn -0.085452 0.883358 0.460799
vn 0.073824 -0.467391 -0.880917
vn -0.295511 0.000000 0.955321
vn -0.078433 0.343425 0.935881
vn 0.999939 0.000000 -0.010071
vn 0.073824 -0.467055 0.881130
vn 0.990539 0.000000 -0.137059
vn -0.297647 0.000000 -0.954650
vn -0.078494 0.341136 -0.936705
vn -0.975402 -0.220222 -0.006989
vn -0.765587 0.643300 0.000000
vn -0.215308 0.559923 -0.800043
vn -0.390301 -0.918485 -0.063265
vn -0.491470 -0.869930 -0.040742
vn -0.084109 -0.815394 -0.572741
vn -0.288705 0.957396 0.000000
vn -0.004608 0.904965 -0.425398
vn -0.263009 -0.724723 -0.636830
vn 0.493393 -0.532426 -0.687796
vn 0.580279 0.527116 -0.620777
vn -0.275430 -0.190558 -0.942228
vn 0.642537 -0.040071 -0.765160
vn 0.997253 -0.073550 0.006836
vn 0.343333 -0.850124 -0.399182
vn 0.905942 -0.423353 -0.003204
vn 0.420667 0.833796 -0.357463
vn 0.930906 0.365154 -0.005524
vn 0.578753 0.528123 0.621357
vn 0.675558 -0.737266 0.000000
vn 0.391400 -0.848354 0.356456
vn 0.615101 0.788415 0.001099
vn 0.421003 0.833674 0.357372
vn 0.533494 -0.530351 0.658834
vn -0.056795 -0.847224 0.528123
vn -0.004608 0.904965 0.425398
vn 0.652028 -0.025117 0.757775
vn -0.262947 -0.676626 0.687735
vn -0.215308 0.559923 0.800043
vn 0.174413 -0.983947 -0.037629
vn 0.244179 0.969726 0.000000
vn -0.282754 -0.129673 0.950377
vn -1.000000 0.000000 0.000000
vn -0.921659 0.387921 0.000000
vn -0.493484 0.000000 -0.869716
vn -0.551927 -0.833888 0.000000
vn -0.921659 -0.387921 0.000000
vn -0.438246 -0.452925 -0.776391
vn -0.562304 0.826899 0.000000
vn -0.438246 0.452925 -0.776391
vn -0.235145 -0.858180 -0.456252
vn 0.330851 -0.867031 -0.372478
vn -0.240638 0.852351 -0.464278
vn 0.334727 0.859371 -0.386547
vn 0.372082 -0.473464 -0.798334
vn 0.372082 0.473464 -0.798334
vn 0.385601 0.000000 -0.922636
vn 0.814783 -0.579760 0.000000
vn 0.814783 0.579760 0.000000
vn 0.501511 -0.865108 0.000000
vn 0.504471 0.863399 0.000000
vn 1.000000 0.000000 0.000000
vn 0.385601 0.000000 0.922636
vn 0.372082 -0.473464 0.798334
vn 0.372082 0.473464 0.798334
vn 0.334727 0.859371 0.386547
vn -0.438246 0.452925 0.776391
vn -0.493484 0.000000 0.869716
vn 0.330851 -0.867031 0.372478
vn -0.438246 -0.452925 0.776391
vn -0.447340 0.894345 0.000000
vn -0.310221 -0.950652 0.000000
vn 0.000000 0.000000 1.000000
vn 0.999695 0.023804 0.000000
vn 0.000000 0.000000 -1.000000
vn 0.000000 0.000000 -0.999969
vn -0.999969 0.000000 0.000000
vn 0.107608 -0.994171 0.000000
vn 0.105136 0.994446 0.000000
vn -0.235145 -0.858180 0.456252
vn -0.240638 0.852351 0.464278
s 1
f 2/1/1 1/2/2 7/3/3
f 4/4/4 3/5/5 11/6/6
f 11/6/6 10/7/7 17/8/8
f 8/9/9 7/3/3 13/10/10
f 10/7/7 9/11/11 16/12/12
f 7/3/3 6/13/13 12/14/14
f 14/15/15 13/10/10 20/16/16
f 16/12/12 15/17/17 23/18/18
f 13/10/10 12/14/14 144/19/19
f 15/17/17 14/15/15 21/20/20
f 17/8/8 16/12/12 24/21/21
f 23/22/18 22/23/22 28/24/23
f 20/25/16 144/26/19 25/27/24
f 22/23/22 21/28/20 27/29/25
f 24/30/21 23/22/18 29/31/26
f 21/28/20 20/25/16 26/32/27
f 26/32/27 25/27/24 32/33/28
f 28/24/23 27/29/25 33/34/29
f 30/35/30 29/31/26 35/36/31
f 27/29/25 26/32/27 33/34/29
f 29/31/26 28/24/23 34/37/32
f 36/38/33 35/36/31 41/39/34
f 33/34/29 32/33/28 39/40/35
f 35/36/31 34/37/32 40/41/36
f 32/33/28 31/42/37 38/43/38
f 3/5/5 44/44/39 10/7/7
f 5/45/40 4/4/4 11/6/6
f 1/2/2 149/46/41 6/13/13
f 44/44/39 2/1/1 9/11/11
f 148/47/42 139/48/42 137/49/42
f 138/50/43 140/51/43 135/52/43
f 5/45/40 11/6/6 17/8/8
f 5/45/40 17/8/8 24/21/21
f 136/53/44 18/54/44 19/55/44
f 5/56/40 24/30/21 30/35/30
f 172/57/45 141/58/45 173/59/45
f 5/56/40 30/35/30 36/38/33
f 174/59/46 176/58/46 175/60/46
f 147/61/47 142/62/47 146/63/47
f 5/56/40 36/38/33 42/64/48
f 42/64/48 41/39/34 3/65/5
f 145/66/49 143/67/49 43/68/49
f 39/40/35 38/43/38 2/69/1
f 41/39/34 40/41/36 44/70/39
f 5/56/40 42/64/48 4/71/4
f 38/43/38 37/72/50 1/73/2
f 40/41/36 39/40/35 44/70/39
f 167/74/51 163/75/51 169/76/51
f 165/77/52 168/78/52 170/79/52
f 161/80/53 166/81/53 45/82/53
f 164/83/54 162/84/54 171/85/54
f 156/86/55 152/87/55 158/88/55
f 154/89/56 157/90/56 159/91/56
f 153/92/57 150/93/57 46/94/57
f 151/95/58 155/96/58 160/97/58
f 49/98/59 48/99/60 53/100/61
f 51/101/62 50/102/63 56/103/64
f 48/99/60 47/104/65 52/105/66
f 50/106/63 49/98/59 55/107/67
f 56/103/64 55/108/67 61/109/68
f 53/110/61 52/111/66 59/112/69
f 55/108/67 54/113/70 60/114/71
f 54/113/70 53/110/61 60/114/71
f 61/109/68 60/114/71 65/115/72
f 60/114/71 59/112/69 65/115/72
f 62/116/73 61/109/68 66/117/74
f 59/112/69 58/118/75 64/119/76
f 65/115/72 64/119/76 69/120/77
f 67/121/78 66/117/74 72/122/79
f 64/119/76 63/123/80 68/124/81
f 66/117/74 65/115/72 71/125/82
f 72/122/79 71/125/82 78/126/83
f 69/120/77 68/124/81 74/127/84
f 71/125/82 70/128/85 77/129/86
f 70/128/85 69/120/77 75/130/87
f 73/131/88 51/101/62 56/103/64
f 47/132/65 57/133/89 52/111/66
f 73/131/88 56/103/64 62/116/73
f 52/111/66 57/133/89 58/118/75
f 73/131/88 62/116/73 67/121/78
f 58/118/75 57/133/89 63/123/80
f 63/123/80 57/133/89 68/124/81
f 73/131/88 67/121/78 72/122/79
f 73/131/88 72/122/79 78/126/83
f 68/124/81 57/133/89 74/127/84
f 77/134/86 76/135/90 49/98/59
f 73/131/88 78/126/83 51/101/62
f 74/127/84 57/133/89 47/132/65
f 76/135/90 75/136/87 49/98/59
f 78/126/83 77/129/86 50/102/63
f 75/136/87 74/137/84 48/99/60
f 81/138/91 80/139/92 86/140/93
f 83/141/94 82/142/95 87/143/96
f 80/139/92 79/144/97 85/145/98
f 82/142/95 81/138/91 86/140/93
f 88/146/99 87/143/96 94/147/100
f 85/145/98 84/148/101 90/149/102
f 87/143/96 86/140/93 93/150/103
f 86/140/93 85/145/98 91/151/104
f 93/150/103 92/152/105 98/153/106
f 92/152/105 91/151/104 96/154/107
f 94/147/100 93/150/103 99/155/108
f 91/151/104 90/149/102 95/156/109
f 97/157/110 96/154/107 102/158/111
f 99/155/108 98/153/106 103/159/112
f 96/154/107 95/156/109 101/160/113
f 98/153/106 97/157/110 102/158/111
f 101/160/113 100/161/114 107/162/115
f 103/159/112 102/158/111 108/163/116
f 102/158/111 101/160/113 108/163/116
f 104/164/117 103/159/112 109/165/118
f 111/166/119 112/167/119 114/168/119
f 118/169/120 117/170/120 115/171/120
f 123/172/121 125/173/121 121/174/121
f 129/175/122 124/176/122 122/177/122
f 133/178/123 130/179/123 131/180/124
f 126/181/91 134/182/125 120/183/125
f 105/184/126 83/141/94 88/146/99
f 79/144/97 89/185/127 84/148/101
f 105/184/126 88/146/99 94/147/100
f 84/148/101 89/185/127 90/149/102
f 105/184/126 94/147/100 99/155/108
f 90/149/102 89/185/127 95/156/109
f 105/184/126 99/155/108 104/164/117
f 95/156/109 89/185/127 100/161/114
f 105/184/126 104/164/117 110/186/128
f 100/161/114 89/185/127 106/187/129
f 109/165/118 108/163/116 82/188/95
f 105/184/126 110/186/128 83/189/94
f 106/187/129 89/185/127 79/190/97
f 108/163/116 107/162/115 80/191/92
f 110/186/128 109/165/118 83/189/94
f 107/162/115 106/187/129 79/190/97
f 8/9/9 2/1/1 7/3/3
f 3/5/5 10/7/7 11/6/6
f 10/7/7 16/12/12 17/8/8
f 14/15/15 8/9/9 13/10/10
f 9/11/11 15/17/17 16/12/12
f 13/10/10 7/3/3 12/14/14
f 21/20/20 14/15/15 20/16/16
f 15/17/17 22/192/22 23/18/18
f 20/16/16 13/10/10 144/19/19
f 22/192/22 15/17/17 21/20/20
f 16/12/12 23/18/18 24/21/21
f 29/31/26 23/22/18 28/24/23
f 26/32/27 20/25/16 25/27/24
f 28/24/23 22/23/22 27/29/25
f 30/35/30 24/30/21 29/31/26
f 27/29/25 21/28/20 26/32/27
f 25/27/24 31/42/37 32/33/28
f 34/37/32 28/24/23 33/34/29
f 36/38/33 30/35/30 35/36/31
f 26/32/27 32/33/28 33/34/29
f 35/36/31 29/31/26 34/37/32
f 42/64/48 36/38/33 41/39/34
f 32/33/28 38/43/38 39/40/35
f 41/39/34 35/36/31 40/41/36
f 31/42/37 37/72/50 38/43/38
f 44/44/39 9/11/11 10/7/7
f 7/3/3 1/2/2 6/13/13
f 2/1/1 8/9/9 9/11/11
f 4/71/4 42/64/48 3/65/5
f 38/43/38 1/73/2 2/69/1
f 3/65/5 41/39/34 44/70/39
f 37/72/50 149/193/41 1/73/2
f 39/40/35 2/69/1 44/70/39
f 54/194/70 49/98/59 53/100/61
f 50/102/63 55/108/67 56/103/64
f 53/100/61 48/99/60 52/105/66
f 49/98/59 54/194/70 55/107/67
f 62/116/73 56/103/64 61/109/68
f 52/111/66 58/118/75 59/112/69
f 61/109/68 55/108/67 60/114/71
f 53/110/61 59/112/69 60/114/71
f 66/117/74 61/109/68 65/115/72
f 59/112/69 64/119/76 65/115/72
f 67/121/78 62/116/73 66/117/74
f 58/118/75 63/123/80 64/119/76
f 70/128/85 65/115/72 69/120/77
f 66/117/74 71/125/82 72/122/79
f 69/120/77 64/119/76 68/124/81
f 65/115/72 70/128/85 71/125/82
f 71/125/82 77/129/86 78/126/83
f 75/130/87 69/120/77 74/127/84
f 70/128/85 76/195/90 77/129/86
f 76/195/90 70/128/85 75/130/87
f 50/106/63 77/134/86 49/98/59
f 75/136/87 48/99/60 49/98/59
f 51/101/62 78/126/83 50/102/63
f 74/137/84 47/104/65 48/99/60
f 80/139/92 85/145/98 86/140/93
f 88/146/99 83/141/94 87/143/96
f 79/144/97 84/148/101 85/145/98
f 87/143/96 82/142/95 86/140/93
f 87/143/96 93/150/103 94/147/100
f 91/151/104 85/145/98 90/149/102
f 86/140/93 92/152/105 93/150/103
f 92/152/105 86/140/93 91/151/104
f 92/152/105 97/157/110 98/153/106
f 97/157/110 92/152/105 96/154/107
f 93/150/103 98/153/106 99/155/108
f 96/154/107 91/151/104 95/156/109
f 96/154/107 101/160/113 102/158/111
f 104/164/117 99/155/108 103/159/112
f 95/156/109 100/161/114 101/160/113
f 103/159/112 98/153/106 102/158/111
f 100/161/114 106/187/129 107/162/115
f 109/165/118 103/159/112 108/163/116
f 101/160/113 107/162/115 108/163/116
f 110/186/128 104/164/117 109/165/118
f 112/167/119 113/196/119 114/168/119
f 117/170/120 116/197/120 115/171/120
f 125/173/121 119/198/121 121/174/121
f 127/199/122 129/175/122 122/177/122
f 130/179/123 128/200/123 131/180/124
f 134/182/125 132/201/91 120/183/125
f 108/163/116 81/202/91 82/188/95
f 81/202/91 108/163/116 80/191/92
f 109/165/118 82/188/95 83/189/94
f 80/191/92 107/162/115 79/190/97
