# Blender v2.67 (sub 0) OBJ File: 'treeWithLeaves.blend'
# www.blender.org
o Cube
v -0.751007 0.011080 0.692596
v -0.751007 0.011080 -1.295673
v 1.237262 0.011080 -1.295673
v 1.237262 0.011080 0.692596
v -0.751007 4.788805 0.692596
v -0.751007 4.788805 -1.295673
v 1.237262 4.788805 -1.295673
v 1.237262 4.788805 0.692596
vn -1.000000 0.000000 0.000000
vn 0.000000 0.000000 -1.000000
vn 1.000000 -0.000000 0.000000
vn 0.000000 0.000000 1.000000
vn 0.000000 -1.000000 0.000000
vn 0.000000 1.000000 0.000000
s off
f 5//1 6//1 1//1
f 6//2 7//2 3//2
f 7//3 8//3 4//3
f 8//4 5//4 1//4
f 1//5 2//5 3//5
f 8//6 7//6 6//6
f 6//1 2//1 1//1
f 2//2 6//2 3//2
f 3//3 7//3 4//3
f 4//4 8//4 1//4
f 4//5 1//5 3//5
f 5//6 8//6 6//6
